<svg width="200" height="330" viewBox="0 0 200 330" fill="none" xmlns="http://www.w3.org/2000/svg">
<path d="M54.1026 137.772L49.4371 166.612C64.6664 164.359 65.9189 164.788 79.1582 165.838C74.3713 155.575 73.4032 149.658 98.0795 139.494C87.6398 132.093 73.6835 132.453 54.1026 137.772Z" fill="#7E7E7E"/>
<path d="M149.335 166.784C139.23 165.163 132.67 164.809 119.194 167.215C112.893 161.42 108.544 158.596 99.473 154.102C88.99 146.896 104.326 124.466 144.254 138.227C146.235 149.356 147.268 155.309 149.335 166.784Z" fill="#7E7E7E"/>
<path d="M100.693 129.017V137.668L102.588 136.803V129.017H106.723V127.374H102.588V124H100.693V127.374H96.4715V129.017H100.693Z" fill="#7E7E7E"/>
<path d="M99.4148 181.794C84.7698 168.073 69.301 166.375 48.8346 170.194L47.0251 181.794C72.6144 179.105 83.7484 182.5 99.4148 194.954C114.983 183.382 124.333 178.71 151.546 181.794L149.737 170.194C126.34 166.567 114.886 169.469 99.4148 181.794Z" fill="#7E7E7E"/>
<path d="M42 186.178V190.304C63.4475 185.83 81.085 189.161 99.3432 205.004C114.399 191.425 132.889 185.258 156.256 190.304L157.375 186.178C136.595 181.49 116.339 184.717 99.3432 198.642C82.305 184.618 63.3455 181.385 42 186.178Z" fill="#7E7E7E"/>
</svg>
