<svg width="789" height="789" viewBox="0 0 789 789" fill="none" xmlns="http://www.w3.org/2000/svg">
<circle cx="394.5" cy="394.5" r="394.5" fill="#1F190C"/>
<path d="M139.5 226.5L112.5 394C200.634 380.91 207.883 383.402 284.5 389.5C256.797 329.897 251.195 295.532 394 236.5C333.584 193.518 252.817 195.611 139.5 226.5Z" fill="white"/>
<path d="M691.5 395.5C632.832 386.103 594.742 384.053 516.5 398C479.918 364.415 454.667 348.048 402 322C341.135 280.241 430.179 150.252 662 230C673.5 294.5 679.5 329 691.5 395.5Z" fill="white"/>
<path d="M410 176.5V226.5L421 221.5V176.5H445V167H421V147.5H410V167H385.5V176.5H410Z" fill="white"/>
<path d="M402 482.5C317.02 403.255 227.26 393.445 108.5 415.5L98 482.5C246.486 466.969 311.093 486.577 402 558.5C492.336 491.666 546.592 464.685 704.5 482.5L694 415.5C558.235 394.553 491.774 411.317 402 482.5Z" fill="white"/>
<path d="M69 507.5V531.5C193.549 505.475 295.972 524.849 402 617C489.431 538.018 596.807 502.149 732.5 531.5L739 507.5C618.328 480.232 500.7 499.006 402 580C303.057 498.428 192.957 479.622 69 507.5Z" fill="white"/>
</svg>
