<svg width="670" height="470" viewBox="0 0 670 470" fill="none" xmlns="http://www.w3.org/2000/svg">
<path d="M74.9227 83.4819C181.577 54.758 257.431 52.534 314.495 88.4779C282.94 101.867 258.922 114.08 241.02 125.739C221.551 138.418 208.984 150.652 201.937 163.361C188.85 186.961 195.706 210.477 207.423 236.834C204.07 236.562 200.853 236.298 197.758 236.045C170.452 233.807 152.591 232.344 133.763 232.555C112.179 232.797 89.372 235.231 49.5223 241.058L74.9227 83.4819Z" stroke="#475258" stroke-width="10"/>
<path d="M598.806 144.258C604.302 175.261 609.283 203.357 616.332 242.469C561.577 234.038 523.162 232.613 449.056 245.647C413.092 212.856 387.431 196.359 335.544 170.68C322.239 161.406 317.247 147.58 320.248 132.787C323.319 117.648 334.925 101.01 355.926 87.6538C397.492 61.218 475.056 48.3576 588.595 86.7799C592.467 108.503 595.717 126.839 598.806 144.258Z" stroke="#475258" stroke-width="10"/>
<path d="M342.75 76.7822V29.5V27.75H341H318.25V21.75H341H342.75V20V2.25H350.25V20V21.75H352H374.25V27.75H352H350.25V29.5V73.3732L342.75 76.7822Z" stroke="#475258" stroke-width="3.5"/>
<path d="M620.627 272.891L629.548 329.816C553.842 321.722 501.764 324.182 457.524 336.953C413.054 349.789 376.945 372.926 333.098 405.213C288.624 370.371 249.823 347.79 203.847 335.865C158.291 324.048 106.099 322.802 34.9437 329.868L43.8906 272.778C101.505 262.334 151.831 259.675 197.935 268.915C244.859 278.319 287.72 300.113 329.59 339.157L332.736 342.09L336.107 339.418C380.664 304.087 419.057 282.563 462.891 272.32C506.013 262.243 554.845 262.979 620.627 272.891Z" stroke="#475258" stroke-width="10"/>
<path d="M335.22 435.706C431.983 356.301 547.121 337.22 665.664 363.122L660.988 380.387C526.86 352.305 420.067 387.702 332.957 465.336C280.401 420.165 228.53 392.602 174.265 379.532C120.444 366.568 64.4945 367.916 3.5 380.209V363.307C125.445 336.517 233.51 355.513 330.774 435.701L332.995 437.532L335.22 435.706Z" stroke="#475258" stroke-width="7"/>
</svg>
